<?xml version="1.0" encoding="UTF-8" standalone="no"?>
<!-- Created with Inkscape (http://www.inkscape.org/) -->

<svg
   width="108.10863mm"
   height="232.71164mm"
   viewBox="0 0 108.10863 232.71164"
   version="1.1"
   id="svg1"
   xml:space="preserve"
   inkscape:export-filename="falling-oysters.svg"
   inkscape:export-xdpi="96"
   inkscape:export-ydpi="96"
   xmlns:inkscape="http://www.inkscape.org/namespaces/inkscape"
   xmlns:sodipodi="http://sodipodi.sourceforge.net/DTD/sodipodi-0.dtd"
   xmlns="http://www.w3.org/2000/svg"
   xmlns:svg="http://www.w3.org/2000/svg"><sodipodi:namedview
     id="namedview1"
     pagecolor="#ffffff"
     bordercolor="#000000"
     borderopacity="0.25"
     inkscape:showpageshadow="2"
     inkscape:pageopacity="0.0"
     inkscape:pagecheckerboard="0"
     inkscape:deskcolor="#d1d1d1"
     inkscape:document-units="mm" /><defs
     id="defs1"><mask
       id="pearl-transparency-mask-6"
       maskUnits="userSpaceOnUse"
       maskContentUnits="userSpaceOnUse"
       mask-type="luminance"
       x="70"
       y="90"
       width="72"
       height="72"><!-- De basis van de parel is wit (volledig zichtbaar) --><circle
         cx="105.928"
         cy="127.524"
         r="24"
         fill="#ffffff"
         id="circle1-2" /><!-- De glansplek linksboven is zwart (maakt een transparant gat) --><path
         d="m 94.718,111.524 c -7,6 -8,15 -4,22 -2,-6 -1,-15 5,-20 1,-1 0,-3 -1,-2 z"
         fill="#000000"
         id="path1-4" /></mask></defs><g
     inkscape:label="Laag 1"
     inkscape:groupmode="layer"
     id="layer1"
     transform="translate(-17.346463,-53.911626)"><g
       id="layer1-5"
       transform="translate(0.69353238,3.6355882)"><g
         id="g1"
         transform="matrix(0.2266406,0.07992519,-0.07992519,0.2266406,83.7661,99.530474)"><path
           d="m 105.83364,0 c 14.4052,0 29.923,12.5074 38.1992,18.0247 9.4739,6.0471 23.7225,-1.50735 31.5021,5.0441 9.5679,8.69225 11.7568,24.0347 18.3555,31.6671 12.8862,12.88655 17.1881,28.2819 17.694,40.5972 -2.2064,-5.40605 -4.7004,-11.3898 -7.855,-17.1979 -4.1555,-7.651 -9.3342,-14.4958 -16.5364,-16.7019 -4.2305,-11.8554 -11.5679,-21.2349 -20.9185,-26.7065 -9.2128,-5.3911 -20.3322,-6.8212 -31.5021,-3.3073 -9.9319,-10.0618 -19.3027,-15.5445 -29.2695,-15.5445 -10.028504,0 -19.966304,5.4875 -31.171124,15.6271 -10.948,-2.3826 -20.89048,-1.5835 -29.02165,3.638 -8.20844,5.2724 -14.28089,14.8384 -18.35547,29.0219 -8.03434,2.5998 -12.70768,10.1264 -16.61901,16.4539 -4.17274,6.7802 -7.63667,13.6369 -10.33542,19.0995 0.1746,-15.1001 5.27685,-32.399 20.17448,-44.8141 7.95708,-8.0999 5.85973,-21.6072 13.39453,-29.1867 9.90838,-8.2156 23.74904,-2.9334 33.73434,-7.5245 C 79.841416,11.3721 91.849636,0.2426 105.83364,0 Z m -0.331,21.1669 c 7.579,0 15.1775,3.9024 23.8953,12.31955 -2.5254,12.87275 -4.9609,28.0937 -4.9609,45.8065 2.576,-15.457 5.2281,-28.41465 15.1307,-43.7393 8.6524,-1.9357 16.8211,-0.467 23.9779,3.7208 7.2278,4.2291 13.3646,11.3088 17.3632,20.4224 -8.2473,7.4562 -21.3973,17.5101 -30.0963,32.5771 10.0415,-12.1976 25.8519,-20.8312 38.9435,-23.6472 3.3522,2.6223 6.5434,6.917 9.3429,12.0716 3.9482,7.2689 7.089,15.6591 9.7566,21.9936 -7.9211,4.7961 -18.3857,6.3841 -26.2102,8.1031 -15.571,3.4256 -33.3028,7.8783 -42.6641,20.4227 0.474,-23.9319 -15.0974,-38.7994 -34.1479,-38.6131 -19.727304,-0.05 -34.783424,15.9624 -34.147924,38.6131 -9.3644,-12.5426 -27.14043,-16.9707 -42.74688,-20.092 -8.76618,-2.0155 -17.5903,-2.9519 -25.38333,-6.4494 2.74002,-5.595 6.63072,-13.8346 11.24479,-21.33205 3.56261,-5.57355 6.97759,-10.6373 12.40234,-13.97325 12.53834,3.3332 26.99226,11.4991 36.38018,22.9029 -8.5804,-14.86165 -21.49472,-24.73725 -29.76559,-32.1636 3.70972,-10.2095 8.59102,-16.7833 14.38671,-20.5052 6.63208,-4.2595 14.74498,-5.0784 24.63928,-2.9765 9.34282,14.8621 11.95342,27.5674 14.46932,42.6643 0,-18.4857 -2.6508,-34.3289 -5.2916,-47.5427 7.6075,-5.8399 15.7051,-10.441 23.482004,-10.58335 z M 73.008616,137.5842 c 4.4704,13.80775 17.53582,23.7302 32.824724,23.7302 15.2892,0 28.3546,-9.92245 32.825,-23.7302 5.543,3.5851 13.2215,6.6548 19.2649,8.01995 13.9925,2.9689 27.0055,3.2385 40.3489,5.2094 -2.5334,7.75285 -4.9985,12.96865 -9.839,18.0248 -3.4817,1.9788 -7.7677,0.98005 -11.3276,0.331 -8.0616,-1.683 -13.4718,-2.9036 -19.6784,0.249 -10.0119,-0.193 -17.385,-2.9157 -22.4896,-8.0201 2.4077,4.8155 4.913,9.65395 15.2963,14.4696 -3.9243,4.0095 -7.2596,8.5746 -11.4101,12.0713 -2.0553,1.7095 -3.8587,2.5636 -4.7956,2.5636 -2.4879,0 -7.9478,-3.1131 -13.312,-6.61485 -4.586,-2.99375 -9.1175,-6.2949 -13.8078,-7.1935 -0.4,-2.4175 -0.429,-5.3096 -0.992,-10.2526 -1.1374,4.7429 -1.6886,7.6677 -2.5633,10.0875 -5.135304,0.493 -10.059204,4.1019 -15.048104,7.3586 -5.3642,3.50175 -10.82392,6.61485 -13.31182,6.61485 -0.783,0 -2.5654,-0.937 -4.6302,-2.8943 -3.8036,-3.846 -6.6008,-7.5332 -9.5911,-11.4927 10.9148,-4.9109 13.5022,-9.8065 15.9575,-14.7175 -4.9752,4.97535 -12.1922,7.6314 -21.8281,7.9375 -1.77667,-1.7848 -3.63246,-3.2184 -5.78776,-3.9687 -5.23002,-1.8209 -10.92411,3e-4 -16.28828,1.4055 -5.20647,1.3596 -10.04014,2.2434 -12.89843,1.4057 -1.80949,-1.528 -2.91915,-3.6632 -3.80339,-6.6974 -0.9369,-3.2147 -1.60866,-7.2525 -2.97656,-11.4099 13.66387,-1.4777 27.8974,-1.7994 40.59687,-4.4654 7.13745,-1.7986 13.85515,-4.531 19.26515,-8.0208 z m -65.23648,13.22935 c 1.1475,3.6891 2.30743,8.7233 3.30729,12.1544 1.31339,4.0868 2.73553,7.47805 6.77995,10.2526 5.23028,1.8209 10.92438,0.08 16.28854,-1.3229 5.36416,-1.4012 10.33039,-2.4685 13.14635,-1.4885 8.37645,5.7573 12.64315,14.5804 19.43045,21.0844 2.4612,2.3325 5.0284,4.2994 8.2683,4.2994 5.55832,0 10.84152,-3.9396 16.20572,-7.4416 5.3641,-3.5018 10.824104,-6.6146 13.311704,-6.6146 2.4879,0 7.9478,3.1128 13.312,6.6146 5.3641,3.502 10.6473,7.4416 16.2057,7.4416 3.0864,0 5.7147,-1.6658 8.1854,-3.7205 5.2904,-4.6575 9.2747,-10.0547 14.056,-14.8006 2.1511,-2.1216 4.1783,-3.6062 5.457,-4.0513 2.73,-0.951 8.6024,0.09 14.3868,1.1573 5.3504,0.891 12.4282,1.8804 16.1231,-1.8187 5.6444,-5.896 8.5408,-12.333 11.2448,-20.7534 3.4105,0.75 6.6109,1.6875 8.1855,4.2982 0,10.2404 -10.4527,24.4136 -29.1868,35.719 -18.7341,11.3051 -45.3742,19.8437 -76.6466,19.8437 -31.272124,0 -57.928414,-8.5563 -76.646364,-20.1745 -18.71794,-11.617 -29.18698,-26.303 -29.18698,-38.0328 1.49013,-1.4956 5.42343,-2.1714 7.77214,-2.6458 z"
           fill="currentColor"
           id="path2" /><circle
           class="pearl"
           cx="105.928"
           cy="127.524"
           r="24"
           fill="currentColor"
           mask="url(#pearl-transparency-mask-6)"
           id="circle2" /></g><g
         id="g3"
         transform="matrix(0.13288242,0.07101813,-0.07101813,0.13288242,73.882716,180.03644)"><path
           d="m 105.83364,0 c 14.4052,0 29.923,12.5074 38.1992,18.0247 9.4739,6.0471 23.7225,-1.50735 31.5021,5.0441 9.5679,8.69225 11.7568,24.0347 18.3555,31.6671 12.8862,12.88655 17.1881,28.2819 17.694,40.5972 -2.2064,-5.40605 -4.7004,-11.3898 -7.855,-17.1979 -4.1555,-7.651 -9.3342,-14.4958 -16.5364,-16.7019 -4.2305,-11.8554 -11.5679,-21.2349 -20.9185,-26.7065 -9.2128,-5.3911 -20.3322,-6.8212 -31.5021,-3.3073 -9.9319,-10.0618 -19.3027,-15.5445 -29.2695,-15.5445 -10.028504,0 -19.966304,5.4875 -31.171124,15.6271 -10.948,-2.3826 -20.89048,-1.5835 -29.02165,3.638 -8.20844,5.2724 -14.28089,14.8384 -18.35547,29.0219 -8.03434,2.5998 -12.70768,10.1264 -16.61901,16.4539 -4.17274,6.7802 -7.63667,13.6369 -10.33542,19.0995 0.1746,-15.1001 5.27685,-32.399 20.17448,-44.8141 7.95708,-8.0999 5.85973,-21.6072 13.39453,-29.1867 9.90838,-8.2156 23.74904,-2.9334 33.73434,-7.5245 C 79.841416,11.3721 91.849636,0.2426 105.83364,0 Z m -0.331,21.1669 c 7.579,0 15.1775,3.9024 23.8953,12.31955 -2.5254,12.87275 -4.9609,28.0937 -4.9609,45.8065 2.576,-15.457 5.2281,-28.41465 15.1307,-43.7393 8.6524,-1.9357 16.8211,-0.467 23.9779,3.7208 7.2278,4.2291 13.3646,11.3088 17.3632,20.4224 -8.2473,7.4562 -21.3973,17.5101 -30.0963,32.5771 10.0415,-12.1976 25.8519,-20.8312 38.9435,-23.6472 3.3522,2.6223 6.5434,6.917 9.3429,12.0716 3.9482,7.2689 7.089,15.6591 9.7566,21.9936 -7.9211,4.7961 -18.3857,6.3841 -26.2102,8.1031 -15.571,3.4256 -33.3028,7.8783 -42.6641,20.4227 0.474,-23.9319 -15.0974,-38.7994 -34.1479,-38.6131 -19.727304,-0.05 -34.783424,15.9624 -34.147924,38.6131 -9.3644,-12.5426 -27.14043,-16.9707 -42.74688,-20.092 -8.76618,-2.0155 -17.5903,-2.9519 -25.38333,-6.4494 2.74002,-5.595 6.63072,-13.8346 11.24479,-21.33205 3.56261,-5.57355 6.97759,-10.6373 12.40234,-13.97325 12.53834,3.3332 26.99226,11.4991 36.38018,22.9029 -8.5804,-14.86165 -21.49472,-24.73725 -29.76559,-32.1636 3.70972,-10.2095 8.59102,-16.7833 14.38671,-20.5052 6.63208,-4.2595 14.74498,-5.0784 24.63928,-2.9765 9.34282,14.8621 11.95342,27.5674 14.46932,42.6643 0,-18.4857 -2.6508,-34.3289 -5.2916,-47.5427 7.6075,-5.8399 15.7051,-10.441 23.482004,-10.58335 z M 73.008616,137.5842 c 4.4704,13.80775 17.53582,23.7302 32.824724,23.7302 15.2892,0 28.3546,-9.92245 32.825,-23.7302 5.543,3.5851 13.2215,6.6548 19.2649,8.01995 13.9925,2.9689 27.0055,3.2385 40.3489,5.2094 -2.5334,7.75285 -4.9985,12.96865 -9.839,18.0248 -3.4817,1.9788 -7.7677,0.98005 -11.3276,0.331 -8.0616,-1.683 -13.4718,-2.9036 -19.6784,0.249 -10.0119,-0.193 -17.385,-2.9157 -22.4896,-8.0201 2.4077,4.8155 4.913,9.65395 15.2963,14.4696 -3.9243,4.0095 -7.2596,8.5746 -11.4101,12.0713 -2.0553,1.7095 -3.8587,2.5636 -4.7956,2.5636 -2.4879,0 -7.9478,-3.1131 -13.312,-6.61485 -4.586,-2.99375 -9.1175,-6.2949 -13.8078,-7.1935 -0.4,-2.4175 -0.429,-5.3096 -0.992,-10.2526 -1.1374,4.7429 -1.6886,7.6677 -2.5633,10.0875 -5.135304,0.493 -10.059204,4.1019 -15.048104,7.3586 -5.3642,3.50175 -10.82392,6.61485 -13.31182,6.61485 -0.783,0 -2.5654,-0.937 -4.6302,-2.8943 -3.8036,-3.846 -6.6008,-7.5332 -9.5911,-11.4927 10.9148,-4.9109 13.5022,-9.8065 15.9575,-14.7175 -4.9752,4.97535 -12.1922,7.6314 -21.8281,7.9375 -1.77667,-1.7848 -3.63246,-3.2184 -5.78776,-3.9687 -5.23002,-1.8209 -10.92411,3e-4 -16.28828,1.4055 -5.20647,1.3596 -10.04014,2.2434 -12.89843,1.4057 -1.80949,-1.528 -2.91915,-3.6632 -3.80339,-6.6974 -0.9369,-3.2147 -1.60866,-7.2525 -2.97656,-11.4099 13.66387,-1.4777 27.8974,-1.7994 40.59687,-4.4654 7.13745,-1.7986 13.85515,-4.531 19.26515,-8.0208 z m -65.23648,13.22935 c 1.1475,3.6891 2.30743,8.7233 3.30729,12.1544 1.31339,4.0868 2.73553,7.47805 6.77995,10.2526 5.23028,1.8209 10.92438,0.08 16.28854,-1.3229 5.36416,-1.4012 10.33039,-2.4685 13.14635,-1.4885 8.37645,5.7573 12.64315,14.5804 19.43045,21.0844 2.4612,2.3325 5.0284,4.2994 8.2683,4.2994 5.55832,0 10.84152,-3.9396 16.20572,-7.4416 5.3641,-3.5018 10.824104,-6.6146 13.311704,-6.6146 2.4879,0 7.9478,3.1128 13.312,6.6146 5.3641,3.502 10.6473,7.4416 16.2057,7.4416 3.0864,0 5.7147,-1.6658 8.1854,-3.7205 5.2904,-4.6575 9.2747,-10.0547 14.056,-14.8006 2.1511,-2.1216 4.1783,-3.6062 5.457,-4.0513 2.73,-0.951 8.6024,0.09 14.3868,1.1573 5.3504,0.891 12.4282,1.8804 16.1231,-1.8187 5.6444,-5.896 8.5408,-12.333 11.2448,-20.7534 3.4105,0.75 6.6109,1.6875 8.1855,4.2982 0,10.2404 -10.4527,24.4136 -29.1868,35.719 -18.7341,11.3051 -45.3742,19.8437 -76.6466,19.8437 -31.272124,0 -57.928414,-8.5563 -76.646364,-20.1745 -18.71794,-11.617 -29.18698,-26.303 -29.18698,-38.0328 1.49013,-1.4956 5.42343,-2.1714 7.77214,-2.6458 z"
           fill="currentColor"
           id="path3" /><circle
           class="pearl"
           cx="105.928"
           cy="127.524"
           r="24"
           fill="currentColor"
           mask="url(#pearl-transparency-mask-6)"
           id="circle3" /></g><g
         id="g4"
         transform="matrix(0.10603431,-0.0466074,0.0466074,0.10603431,36.192349,235.32371)"><path
           d="m 105.83364,0 c 14.4052,0 29.923,12.5074 38.1992,18.0247 9.4739,6.0471 23.7225,-1.50735 31.5021,5.0441 9.5679,8.69225 11.7568,24.0347 18.3555,31.6671 12.8862,12.88655 17.1881,28.2819 17.694,40.5972 -2.2064,-5.40605 -4.7004,-11.3898 -7.855,-17.1979 -4.1555,-7.651 -9.3342,-14.4958 -16.5364,-16.7019 -4.2305,-11.8554 -11.5679,-21.2349 -20.9185,-26.7065 -9.2128,-5.3911 -20.3322,-6.8212 -31.5021,-3.3073 -9.9319,-10.0618 -19.3027,-15.5445 -29.2695,-15.5445 -10.028504,0 -19.966304,5.4875 -31.171124,15.6271 -10.948,-2.3826 -20.89048,-1.5835 -29.02165,3.638 -8.20844,5.2724 -14.28089,14.8384 -18.35547,29.0219 -8.03434,2.5998 -12.70768,10.1264 -16.61901,16.4539 -4.17274,6.7802 -7.63667,13.6369 -10.33542,19.0995 0.1746,-15.1001 5.27685,-32.399 20.17448,-44.8141 7.95708,-8.0999 5.85973,-21.6072 13.39453,-29.1867 9.90838,-8.2156 23.74904,-2.9334 33.73434,-7.5245 C 79.841416,11.3721 91.849636,0.2426 105.83364,0 Z m -0.331,21.1669 c 7.579,0 15.1775,3.9024 23.8953,12.31955 -2.5254,12.87275 -4.9609,28.0937 -4.9609,45.8065 2.576,-15.457 5.2281,-28.41465 15.1307,-43.7393 8.6524,-1.9357 16.8211,-0.467 23.9779,3.7208 7.2278,4.2291 13.3646,11.3088 17.3632,20.4224 -8.2473,7.4562 -21.3973,17.5101 -30.0963,32.5771 10.0415,-12.1976 25.8519,-20.8312 38.9435,-23.6472 3.3522,2.6223 6.5434,6.917 9.3429,12.0716 3.9482,7.2689 7.089,15.6591 9.7566,21.9936 -7.9211,4.7961 -18.3857,6.3841 -26.2102,8.1031 -15.571,3.4256 -33.3028,7.8783 -42.6641,20.4227 0.474,-23.9319 -15.0974,-38.7994 -34.1479,-38.6131 -19.727304,-0.05 -34.783424,15.9624 -34.147924,38.6131 -9.3644,-12.5426 -27.14043,-16.9707 -42.74688,-20.092 -8.76618,-2.0155 -17.5903,-2.9519 -25.38333,-6.4494 2.74002,-5.595 6.63072,-13.8346 11.24479,-21.33205 3.56261,-5.57355 6.97759,-10.6373 12.40234,-13.97325 12.53834,3.3332 26.99226,11.4991 36.38018,22.9029 -8.5804,-14.86165 -21.49472,-24.73725 -29.76559,-32.1636 3.70972,-10.2095 8.59102,-16.7833 14.38671,-20.5052 6.63208,-4.2595 14.74498,-5.0784 24.63928,-2.9765 9.34282,14.8621 11.95342,27.5674 14.46932,42.6643 0,-18.4857 -2.6508,-34.3289 -5.2916,-47.5427 7.6075,-5.8399 15.7051,-10.441 23.482004,-10.58335 z M 73.008616,137.5842 c 4.4704,13.80775 17.53582,23.7302 32.824724,23.7302 15.2892,0 28.3546,-9.92245 32.825,-23.7302 5.543,3.5851 13.2215,6.6548 19.2649,8.01995 13.9925,2.9689 27.0055,3.2385 40.3489,5.2094 -2.5334,7.75285 -4.9985,12.96865 -9.839,18.0248 -3.4817,1.9788 -7.7677,0.98005 -11.3276,0.331 -8.0616,-1.683 -13.4718,-2.9036 -19.6784,0.249 -10.0119,-0.193 -17.385,-2.9157 -22.4896,-8.0201 2.4077,4.8155 4.913,9.65395 15.2963,14.4696 -3.9243,4.0095 -7.2596,8.5746 -11.4101,12.0713 -2.0553,1.7095 -3.8587,2.5636 -4.7956,2.5636 -2.4879,0 -7.9478,-3.1131 -13.312,-6.61485 -4.586,-2.99375 -9.1175,-6.2949 -13.8078,-7.1935 -0.4,-2.4175 -0.429,-5.3096 -0.992,-10.2526 -1.1374,4.7429 -1.6886,7.6677 -2.5633,10.0875 -5.135304,0.493 -10.059204,4.1019 -15.048104,7.3586 -5.3642,3.50175 -10.82392,6.61485 -13.31182,6.61485 -0.783,0 -2.5654,-0.937 -4.6302,-2.8943 -3.8036,-3.846 -6.6008,-7.5332 -9.5911,-11.4927 10.9148,-4.9109 13.5022,-9.8065 15.9575,-14.7175 -4.9752,4.97535 -12.1922,7.6314 -21.8281,7.9375 -1.77667,-1.7848 -3.63246,-3.2184 -5.78776,-3.9687 -5.23002,-1.8209 -10.92411,3e-4 -16.28828,1.4055 -5.20647,1.3596 -10.04014,2.2434 -12.89843,1.4057 -1.80949,-1.528 -2.91915,-3.6632 -3.80339,-6.6974 -0.9369,-3.2147 -1.60866,-7.2525 -2.97656,-11.4099 13.66387,-1.4777 27.8974,-1.7994 40.59687,-4.4654 7.13745,-1.7986 13.85515,-4.531 19.26515,-8.0208 z m -65.23648,13.22935 c 1.1475,3.6891 2.30743,8.7233 3.30729,12.1544 1.31339,4.0868 2.73553,7.47805 6.77995,10.2526 5.23028,1.8209 10.92438,0.08 16.28854,-1.3229 5.36416,-1.4012 10.33039,-2.4685 13.14635,-1.4885 8.37645,5.7573 12.64315,14.5804 19.43045,21.0844 2.4612,2.3325 5.0284,4.2994 8.2683,4.2994 5.55832,0 10.84152,-3.9396 16.20572,-7.4416 5.3641,-3.5018 10.824104,-6.6146 13.311704,-6.6146 2.4879,0 7.9478,3.1128 13.312,6.6146 5.3641,3.502 10.6473,7.4416 16.2057,7.4416 3.0864,0 5.7147,-1.6658 8.1854,-3.7205 5.2904,-4.6575 9.2747,-10.0547 14.056,-14.8006 2.1511,-2.1216 4.1783,-3.6062 5.457,-4.0513 2.73,-0.951 8.6024,0.09 14.3868,1.1573 5.3504,0.891 12.4282,1.8804 16.1231,-1.8187 5.6444,-5.896 8.5408,-12.333 11.2448,-20.7534 3.4105,0.75 6.6109,1.6875 8.1855,4.2982 0,10.2404 -10.4527,24.4136 -29.1868,35.719 -18.7341,11.3051 -45.3742,19.8437 -76.6466,19.8437 -31.272124,0 -57.928414,-8.5563 -76.646364,-20.1745 -18.71794,-11.617 -29.18698,-26.303 -29.18698,-38.0328 1.49013,-1.4956 5.42343,-2.1714 7.77214,-2.6458 z"
           fill="currentColor"
           id="path4" /><circle
           class="pearl"
           cx="105.928"
           cy="127.524"
           r="24"
           fill="currentColor"
           mask="url(#pearl-transparency-mask-6)"
           id="circle4" /></g><g
         id="g5"
         transform="matrix(0.07782199,0.03739857,-0.03739857,0.07782199,73.315204,261.18965)"><path
           d="m 105.83364,0 c 14.4052,0 29.923,12.5074 38.1992,18.0247 9.4739,6.0471 23.7225,-1.50735 31.5021,5.0441 9.5679,8.69225 11.7568,24.0347 18.3555,31.6671 12.8862,12.88655 17.1881,28.2819 17.694,40.5972 -2.2064,-5.40605 -4.7004,-11.3898 -7.855,-17.1979 -4.1555,-7.651 -9.3342,-14.4958 -16.5364,-16.7019 -4.2305,-11.8554 -11.5679,-21.2349 -20.9185,-26.7065 -9.2128,-5.3911 -20.3322,-6.8212 -31.5021,-3.3073 -9.9319,-10.0618 -19.3027,-15.5445 -29.2695,-15.5445 -10.028504,0 -19.966304,5.4875 -31.171124,15.6271 -10.948,-2.3826 -20.89048,-1.5835 -29.02165,3.638 -8.20844,5.2724 -14.28089,14.8384 -18.35547,29.0219 -8.03434,2.5998 -12.70768,10.1264 -16.61901,16.4539 -4.17274,6.7802 -7.63667,13.6369 -10.33542,19.0995 0.1746,-15.1001 5.27685,-32.399 20.17448,-44.8141 7.95708,-8.0999 5.85973,-21.6072 13.39453,-29.1867 9.90838,-8.2156 23.74904,-2.9334 33.73434,-7.5245 C 79.841416,11.3721 91.849636,0.2426 105.83364,0 Z m -0.331,21.1669 c 7.579,0 15.1775,3.9024 23.8953,12.31955 -2.5254,12.87275 -4.9609,28.0937 -4.9609,45.8065 2.576,-15.457 5.2281,-28.41465 15.1307,-43.7393 8.6524,-1.9357 16.8211,-0.467 23.9779,3.7208 7.2278,4.2291 13.3646,11.3088 17.3632,20.4224 -8.2473,7.4562 -21.3973,17.5101 -30.0963,32.5771 10.0415,-12.1976 25.8519,-20.8312 38.9435,-23.6472 3.3522,2.6223 6.5434,6.917 9.3429,12.0716 3.9482,7.2689 7.089,15.6591 9.7566,21.9936 -7.9211,4.7961 -18.3857,6.3841 -26.2102,8.1031 -15.571,3.4256 -33.3028,7.8783 -42.6641,20.4227 0.474,-23.9319 -15.0974,-38.7994 -34.1479,-38.6131 -19.727304,-0.05 -34.783424,15.9624 -34.147924,38.6131 -9.3644,-12.5426 -27.14043,-16.9707 -42.74688,-20.092 -8.76618,-2.0155 -17.5903,-2.9519 -25.38333,-6.4494 2.74002,-5.595 6.63072,-13.8346 11.24479,-21.33205 3.56261,-5.57355 6.97759,-10.6373 12.40234,-13.97325 12.53834,3.3332 26.99226,11.4991 36.38018,22.9029 -8.5804,-14.86165 -21.49472,-24.73725 -29.76559,-32.1636 3.70972,-10.2095 8.59102,-16.7833 14.38671,-20.5052 6.63208,-4.2595 14.74498,-5.0784 24.63928,-2.9765 9.34282,14.8621 11.95342,27.5674 14.46932,42.6643 0,-18.4857 -2.6508,-34.3289 -5.2916,-47.5427 7.6075,-5.8399 15.7051,-10.441 23.482004,-10.58335 z M 73.008616,137.5842 c 4.4704,13.80775 17.53582,23.7302 32.824724,23.7302 15.2892,0 28.3546,-9.92245 32.825,-23.7302 5.543,3.5851 13.2215,6.6548 19.2649,8.01995 13.9925,2.9689 27.0055,3.2385 40.3489,5.2094 -2.5334,7.75285 -4.9985,12.96865 -9.839,18.0248 -3.4817,1.9788 -7.7677,0.98005 -11.3276,0.331 -8.0616,-1.683 -13.4718,-2.9036 -19.6784,0.249 -10.0119,-0.193 -17.385,-2.9157 -22.4896,-8.0201 2.4077,4.8155 4.913,9.65395 15.2963,14.4696 -3.9243,4.0095 -7.2596,8.5746 -11.4101,12.0713 -2.0553,1.7095 -3.8587,2.5636 -4.7956,2.5636 -2.4879,0 -7.9478,-3.1131 -13.312,-6.61485 -4.586,-2.99375 -9.1175,-6.2949 -13.8078,-7.1935 -0.4,-2.4175 -0.429,-5.3096 -0.992,-10.2526 -1.1374,4.7429 -1.6886,7.6677 -2.5633,10.0875 -5.135304,0.493 -10.059204,4.1019 -15.048104,7.3586 -5.3642,3.50175 -10.82392,6.61485 -13.31182,6.61485 -0.783,0 -2.5654,-0.937 -4.6302,-2.8943 -3.8036,-3.846 -6.6008,-7.5332 -9.5911,-11.4927 10.9148,-4.9109 13.5022,-9.8065 15.9575,-14.7175 -4.9752,4.97535 -12.1922,7.6314 -21.8281,7.9375 -1.77667,-1.7848 -3.63246,-3.2184 -5.78776,-3.9687 -5.23002,-1.8209 -10.92411,3e-4 -16.28828,1.4055 -5.20647,1.3596 -10.04014,2.2434 -12.89843,1.4057 -1.80949,-1.528 -2.91915,-3.6632 -3.80339,-6.6974 -0.9369,-3.2147 -1.60866,-7.2525 -2.97656,-11.4099 13.66387,-1.4777 27.8974,-1.7994 40.59687,-4.4654 7.13745,-1.7986 13.85515,-4.531 19.26515,-8.0208 z m -65.23648,13.22935 c 1.1475,3.6891 2.30743,8.7233 3.30729,12.1544 1.31339,4.0868 2.73553,7.47805 6.77995,10.2526 5.23028,1.8209 10.92438,0.08 16.28854,-1.3229 5.36416,-1.4012 10.33039,-2.4685 13.14635,-1.4885 8.37645,5.7573 12.64315,14.5804 19.43045,21.0844 2.4612,2.3325 5.0284,4.2994 8.2683,4.2994 5.55832,0 10.84152,-3.9396 16.20572,-7.4416 5.3641,-3.5018 10.824104,-6.6146 13.311704,-6.6146 2.4879,0 7.9478,3.1128 13.312,6.6146 5.3641,3.502 10.6473,7.4416 16.2057,7.4416 3.0864,0 5.7147,-1.6658 8.1854,-3.7205 5.2904,-4.6575 9.2747,-10.0547 14.056,-14.8006 2.1511,-2.1216 4.1783,-3.6062 5.457,-4.0513 2.73,-0.951 8.6024,0.09 14.3868,1.1573 5.3504,0.891 12.4282,1.8804 16.1231,-1.8187 5.6444,-5.896 8.5408,-12.333 11.2448,-20.7534 3.4105,0.75 6.6109,1.6875 8.1855,4.2982 0,10.2404 -10.4527,24.4136 -29.1868,35.719 -18.7341,11.3051 -45.3742,19.8437 -76.6466,19.8437 -31.272124,0 -57.928414,-8.5563 -76.646364,-20.1745 -18.71794,-11.617 -29.18698,-26.303 -29.18698,-38.0328 1.49013,-1.4956 5.42343,-2.1714 7.77214,-2.6458 z"
           fill="currentColor"
           id="path5" /><circle
           class="pearl"
           cx="105.928"
           cy="127.524"
           r="24"
           fill="currentColor"
           mask="url(#pearl-transparency-mask-6)"
           id="circle5" /></g><g
         id="g6"
         transform="matrix(0.25466896,-0.07174998,0.07174998,0.25466896,17.659086,58.152406)"><path
           d="m 105.83364,0 c 14.4052,0 29.923,12.5074 38.1992,18.0247 9.4739,6.0471 23.7225,-1.50735 31.5021,5.0441 9.5679,8.69225 11.7568,24.0347 18.3555,31.6671 12.8862,12.88655 17.1881,28.2819 17.694,40.5972 -2.2064,-5.40605 -4.7004,-11.3898 -7.855,-17.1979 -4.1555,-7.651 -9.3342,-14.4958 -16.5364,-16.7019 -4.2305,-11.8554 -11.5679,-21.2349 -20.9185,-26.7065 -9.2128,-5.3911 -20.3322,-6.8212 -31.5021,-3.3073 -9.9319,-10.0618 -19.3027,-15.5445 -29.2695,-15.5445 -10.028504,0 -19.966304,5.4875 -31.171124,15.6271 -10.948,-2.3826 -20.89048,-1.5835 -29.02165,3.638 -8.20844,5.2724 -14.28089,14.8384 -18.35547,29.0219 -8.03434,2.5998 -12.70768,10.1264 -16.61901,16.4539 -4.17274,6.7802 -7.63667,13.6369 -10.33542,19.0995 0.1746,-15.1001 5.27685,-32.399 20.17448,-44.8141 7.95708,-8.0999 5.85973,-21.6072 13.39453,-29.1867 9.90838,-8.2156 23.74904,-2.9334 33.73434,-7.5245 C 79.841416,11.3721 91.849636,0.2426 105.83364,0 Z m -0.331,21.1669 c 7.579,0 15.1775,3.9024 23.8953,12.31955 -2.5254,12.87275 -4.9609,28.0937 -4.9609,45.8065 2.576,-15.457 5.2281,-28.41465 15.1307,-43.7393 8.6524,-1.9357 16.8211,-0.467 23.9779,3.7208 7.2278,4.2291 13.3646,11.3088 17.3632,20.4224 -8.2473,7.4562 -21.3973,17.5101 -30.0963,32.5771 10.0415,-12.1976 25.8519,-20.8312 38.9435,-23.6472 3.3522,2.6223 6.5434,6.917 9.3429,12.0716 3.9482,7.2689 7.089,15.6591 9.7566,21.9936 -7.9211,4.7961 -18.3857,6.3841 -26.2102,8.1031 -15.571,3.4256 -33.3028,7.8783 -42.6641,20.4227 0.474,-23.9319 -15.0974,-38.7994 -34.1479,-38.6131 -19.727304,-0.05 -34.783424,15.9624 -34.147924,38.6131 -9.3644,-12.5426 -27.14043,-16.9707 -42.74688,-20.092 -8.76618,-2.0155 -17.5903,-2.9519 -25.38333,-6.4494 2.74002,-5.595 6.63072,-13.8346 11.24479,-21.33205 3.56261,-5.57355 6.97759,-10.6373 12.40234,-13.97325 12.53834,3.3332 26.99226,11.4991 36.38018,22.9029 -8.5804,-14.86165 -21.49472,-24.73725 -29.76559,-32.1636 3.70972,-10.2095 8.59102,-16.7833 14.38671,-20.5052 6.63208,-4.2595 14.74498,-5.0784 24.63928,-2.9765 9.34282,14.8621 11.95342,27.5674 14.46932,42.6643 0,-18.4857 -2.6508,-34.3289 -5.2916,-47.5427 7.6075,-5.8399 15.7051,-10.441 23.482004,-10.58335 z M 73.008616,137.5842 c 4.4704,13.80775 17.53582,23.7302 32.824724,23.7302 15.2892,0 28.3546,-9.92245 32.825,-23.7302 5.543,3.5851 13.2215,6.6548 19.2649,8.01995 13.9925,2.9689 27.0055,3.2385 40.3489,5.2094 -2.5334,7.75285 -4.9985,12.96865 -9.839,18.0248 -3.4817,1.9788 -7.7677,0.98005 -11.3276,0.331 -8.0616,-1.683 -13.4718,-2.9036 -19.6784,0.249 -10.0119,-0.193 -17.385,-2.9157 -22.4896,-8.0201 2.4077,4.8155 4.913,9.65395 15.2963,14.4696 -3.9243,4.0095 -7.2596,8.5746 -11.4101,12.0713 -2.0553,1.7095 -3.8587,2.5636 -4.7956,2.5636 -2.4879,0 -7.9478,-3.1131 -13.312,-6.61485 -4.586,-2.99375 -9.1175,-6.2949 -13.8078,-7.1935 -0.4,-2.4175 -0.429,-5.3096 -0.992,-10.2526 -1.1374,4.7429 -1.6886,7.6677 -2.5633,10.0875 -5.135304,0.493 -10.059204,4.1019 -15.048104,7.3586 -5.3642,3.50175 -10.82392,6.61485 -13.31182,6.61485 -0.783,0 -2.5654,-0.937 -4.6302,-2.8943 -3.8036,-3.846 -6.6008,-7.5332 -9.5911,-11.4927 10.9148,-4.9109 13.5022,-9.8065 15.9575,-14.7175 -4.9752,4.97535 -12.1922,7.6314 -21.8281,7.9375 -1.77667,-1.7848 -3.63246,-3.2184 -5.78776,-3.9687 -5.23002,-1.8209 -10.92411,3e-4 -16.28828,1.4055 -5.20647,1.3596 -10.04014,2.2434 -12.89843,1.4057 -1.80949,-1.528 -2.91915,-3.6632 -3.80339,-6.6974 -0.9369,-3.2147 -1.60866,-7.2525 -2.97656,-11.4099 13.66387,-1.4777 27.8974,-1.7994 40.59687,-4.4654 7.13745,-1.7986 13.85515,-4.531 19.26515,-8.0208 z m -65.23648,13.22935 c 1.1475,3.6891 2.30743,8.7233 3.30729,12.1544 1.31339,4.0868 2.73553,7.47805 6.77995,10.2526 5.23028,1.8209 10.92438,0.08 16.28854,-1.3229 5.36416,-1.4012 10.33039,-2.4685 13.14635,-1.4885 8.37645,5.7573 12.64315,14.5804 19.43045,21.0844 2.4612,2.3325 5.0284,4.2994 8.2683,4.2994 5.55832,0 10.84152,-3.9396 16.20572,-7.4416 5.3641,-3.5018 10.824104,-6.6146 13.311704,-6.6146 2.4879,0 7.9478,3.1128 13.312,6.6146 5.3641,3.502 10.6473,7.4416 16.2057,7.4416 3.0864,0 5.7147,-1.6658 8.1854,-3.7205 5.2904,-4.6575 9.2747,-10.0547 14.056,-14.8006 2.1511,-2.1216 4.1783,-3.6062 5.457,-4.0513 2.73,-0.951 8.6024,0.09 14.3868,1.1573 5.3504,0.891 12.4282,1.8804 16.1231,-1.8187 5.6444,-5.896 8.5408,-12.333 11.2448,-20.7534 3.4105,0.75 6.6109,1.6875 8.1855,4.2982 0,10.2404 -10.4527,24.4136 -29.1868,35.719 -18.7341,11.3051 -45.3742,19.8437 -76.6466,19.8437 -31.272124,0 -57.928414,-8.5563 -76.646364,-20.1745 -18.71794,-11.617 -29.18698,-26.303 -29.18698,-38.0328 1.49013,-1.4956 5.42343,-2.1714 7.77214,-2.6458 z"
           fill="currentColor"
           id="path6" /><circle
           class="pearl"
           cx="105.928"
           cy="127.524"
           r="24"
           fill="currentColor"
           mask="url(#pearl-transparency-mask-6)"
           id="circle6" /></g><g
         id="g7"
         transform="matrix(0.13913802,-0.13185134,0.13185134,0.13913802,8.592519,163.89427)"><path
           d="m 105.83364,0 c 14.4052,0 29.923,12.5074 38.1992,18.0247 9.4739,6.0471 23.7225,-1.50735 31.5021,5.0441 9.5679,8.69225 11.7568,24.0347 18.3555,31.6671 12.8862,12.88655 17.1881,28.2819 17.694,40.5972 -2.2064,-5.40605 -4.7004,-11.3898 -7.855,-17.1979 -4.1555,-7.651 -9.3342,-14.4958 -16.5364,-16.7019 -4.2305,-11.8554 -11.5679,-21.2349 -20.9185,-26.7065 -9.2128,-5.3911 -20.3322,-6.8212 -31.5021,-3.3073 -9.9319,-10.0618 -19.3027,-15.5445 -29.2695,-15.5445 -10.028504,0 -19.966304,5.4875 -31.171124,15.6271 -10.948,-2.3826 -20.89048,-1.5835 -29.02165,3.638 -8.20844,5.2724 -14.28089,14.8384 -18.35547,29.0219 -8.03434,2.5998 -12.70768,10.1264 -16.61901,16.4539 -4.17274,6.7802 -7.63667,13.6369 -10.33542,19.0995 0.1746,-15.1001 5.27685,-32.399 20.17448,-44.8141 7.95708,-8.0999 5.85973,-21.6072 13.39453,-29.1867 9.90838,-8.2156 23.74904,-2.9334 33.73434,-7.5245 C 79.841416,11.3721 91.849636,0.2426 105.83364,0 Z m -0.331,21.1669 c 7.579,0 15.1775,3.9024 23.8953,12.31955 -2.5254,12.87275 -4.9609,28.0937 -4.9609,45.8065 2.576,-15.457 5.2281,-28.41465 15.1307,-43.7393 8.6524,-1.9357 16.8211,-0.467 23.9779,3.7208 7.2278,4.2291 13.3646,11.3088 17.3632,20.4224 -8.2473,7.4562 -21.3973,17.5101 -30.0963,32.5771 10.0415,-12.1976 25.8519,-20.8312 38.9435,-23.6472 3.3522,2.6223 6.5434,6.917 9.3429,12.0716 3.9482,7.2689 7.089,15.6591 9.7566,21.9936 -7.9211,4.7961 -18.3857,6.3841 -26.2102,8.1031 -15.571,3.4256 -33.3028,7.8783 -42.6641,20.4227 0.474,-23.9319 -15.0974,-38.7994 -34.1479,-38.6131 -19.727304,-0.05 -34.783424,15.9624 -34.147924,38.6131 -9.3644,-12.5426 -27.14043,-16.9707 -42.74688,-20.092 -8.76618,-2.0155 -17.5903,-2.9519 -25.38333,-6.4494 2.74002,-5.595 6.63072,-13.8346 11.24479,-21.33205 3.56261,-5.57355 6.97759,-10.6373 12.40234,-13.97325 12.53834,3.3332 26.99226,11.4991 36.38018,22.9029 -8.5804,-14.86165 -21.49472,-24.73725 -29.76559,-32.1636 3.70972,-10.2095 8.59102,-16.7833 14.38671,-20.5052 6.63208,-4.2595 14.74498,-5.0784 24.63928,-2.9765 9.34282,14.8621 11.95342,27.5674 14.46932,42.6643 0,-18.4857 -2.6508,-34.3289 -5.2916,-47.5427 7.6075,-5.8399 15.7051,-10.441 23.482004,-10.58335 z M 73.008616,137.5842 c 4.4704,13.80775 17.53582,23.7302 32.824724,23.7302 15.2892,0 28.3546,-9.92245 32.825,-23.7302 5.543,3.5851 13.2215,6.6548 19.2649,8.01995 13.9925,2.9689 27.0055,3.2385 40.3489,5.2094 -2.5334,7.75285 -4.9985,12.96865 -9.839,18.0248 -3.4817,1.9788 -7.7677,0.98005 -11.3276,0.331 -8.0616,-1.683 -13.4718,-2.9036 -19.6784,0.249 -10.0119,-0.193 -17.385,-2.9157 -22.4896,-8.0201 2.4077,4.8155 4.913,9.65395 15.2963,14.4696 -3.9243,4.0095 -7.2596,8.5746 -11.4101,12.0713 -2.0553,1.7095 -3.8587,2.5636 -4.7956,2.5636 -2.4879,0 -7.9478,-3.1131 -13.312,-6.61485 -4.586,-2.99375 -9.1175,-6.2949 -13.8078,-7.1935 -0.4,-2.4175 -0.429,-5.3096 -0.992,-10.2526 -1.1374,4.7429 -1.6886,7.6677 -2.5633,10.0875 -5.135304,0.493 -10.059204,4.1019 -15.048104,7.3586 -5.3642,3.50175 -10.82392,6.61485 -13.31182,6.61485 -0.783,0 -2.5654,-0.937 -4.6302,-2.8943 -3.8036,-3.846 -6.6008,-7.5332 -9.5911,-11.4927 10.9148,-4.9109 13.5022,-9.8065 15.9575,-14.7175 -4.9752,4.97535 -12.1922,7.6314 -21.8281,7.9375 -1.77667,-1.7848 -3.63246,-3.2184 -5.78776,-3.9687 -5.23002,-1.8209 -10.92411,3e-4 -16.28828,1.4055 -5.20647,1.3596 -10.04014,2.2434 -12.89843,1.4057 -1.80949,-1.528 -2.91915,-3.6632 -3.80339,-6.6974 -0.9369,-3.2147 -1.60866,-7.2525 -2.97656,-11.4099 13.66387,-1.4777 27.8974,-1.7994 40.59687,-4.4654 7.13745,-1.7986 13.85515,-4.531 19.26515,-8.0208 z m -65.23648,13.22935 c 1.1475,3.6891 2.30743,8.7233 3.30729,12.1544 1.31339,4.0868 2.73553,7.47805 6.77995,10.2526 5.23028,1.8209 10.92438,0.08 16.28854,-1.3229 5.36416,-1.4012 10.33039,-2.4685 13.14635,-1.4885 8.37645,5.7573 12.64315,14.5804 19.43045,21.0844 2.4612,2.3325 5.0284,4.2994 8.2683,4.2994 5.55832,0 10.84152,-3.9396 16.20572,-7.4416 5.3641,-3.5018 10.824104,-6.6146 13.311704,-6.6146 2.4879,0 7.9478,3.1128 13.312,6.6146 5.3641,3.502 10.6473,7.4416 16.2057,7.4416 3.0864,0 5.7147,-1.6658 8.1854,-3.7205 5.2904,-4.6575 9.2747,-10.0547 14.056,-14.8006 2.1511,-2.1216 4.1783,-3.6062 5.457,-4.0513 2.73,-0.951 8.6024,0.09 14.3868,1.1573 5.3504,0.891 12.4282,1.8804 16.1231,-1.8187 5.6444,-5.896 8.5408,-12.333 11.2448,-20.7534 3.4105,0.75 6.6109,1.6875 8.1855,4.2982 0,10.2404 -10.4527,24.4136 -29.1868,35.719 -18.7341,11.3051 -45.3742,19.8437 -76.6466,19.8437 -31.272124,0 -57.928414,-8.5563 -76.646364,-20.1745 -18.71794,-11.617 -29.18698,-26.303 -29.18698,-38.0328 1.49013,-1.4956 5.42343,-2.1714 7.77214,-2.6458 z"
           fill="currentColor"
           id="path7" /><circle
           class="pearl"
           cx="105.928"
           cy="127.524"
           r="24"
           fill="currentColor"
           mask="url(#pearl-transparency-mask-6)"
           id="circle7" /></g></g></g></svg>
